<svg preserveAspectRatio="none" width="100%" height="100%" overflow="visible" style="display: block;" viewBox="0 0 14.1287 14.1288" fill="none" xmlns="http://www.w3.org/2000/svg">
<path id="Vector" fill-rule="evenodd" clip-rule="evenodd" d="M0 7.06435C0 3.16282 3.16282 0 7.06436 0C10.9659 0 14.1287 3.16282 14.1287 7.06435C14.1287 10.9659 10.9659 14.1288 7.06436 14.1288C3.16282 14.1288 0 10.9659 0 7.06435ZM7.06436 1.01333C3.72247 1.01333 1.01334 3.72247 1.01334 7.06435C1.01334 10.4062 3.72247 13.1154 7.06436 13.1154C10.4062 13.1154 13.1153 10.4062 13.1153 7.06435C13.1153 3.72247 10.4062 1.01333 7.06436 1.01333ZM7.86438 10.2646C7.86438 10.7065 7.5062 11.0646 7.06438 11.0646C6.62254 11.0646 6.26438 10.7065 6.26438 10.2646C6.26438 9.82284 6.62254 9.46465 7.06438 9.46465C7.5062 9.46465 7.86438 9.82284 7.86438 10.2646ZM5.51782 5.73132C5.51782 5.00823 6.1419 4.31798 7.06448 4.31798C7.98708 4.31798 8.61115 5.00823 8.61115 5.73132C8.61115 6.25524 8.32314 6.52291 7.82655 6.82458C7.77113 6.85826 7.7072 6.89538 7.63882 6.93509C7.44341 7.04857 7.21152 7.18325 7.03724 7.31904C6.77874 7.52046 6.47782 7.84543 6.47782 8.34465C6.47783 8.66866 6.74048 8.93132 7.0645 8.93132C7.38701 8.93132 7.64875 8.67106 7.65114 8.3491L7.65172 8.34817C7.66098 8.33356 7.68838 8.29916 7.75841 8.2446C7.86666 8.16024 7.9872 8.09039 8.14783 7.9973C8.23158 7.94877 8.32628 7.89389 8.43575 7.82738C9.00583 7.48105 9.78445 6.90872 9.78445 5.73132C9.78445 4.32106 8.59524 3.14465 7.06448 3.14465C5.53374 3.14465 4.34448 4.32106 4.34448 5.73132C4.34448 6.05533 4.60715 6.31798 4.93115 6.31798C5.25516 6.31798 5.51782 6.05533 5.51782 5.73132Z" fill="var(--fill-0, #60646C)"/>
</svg>
