<svg preserveAspectRatio="none" width="100%" height="100%" overflow="visible" style="display: block;" viewBox="0 0 13.8667 13.8667" fill="none" xmlns="http://www.w3.org/2000/svg">
<path id="Vector" fill-rule="evenodd" clip-rule="evenodd" d="M1.06667 0C0.477557 0 0 0.477568 0 1.06667V12.8C0 13.3891 0.477568 13.8667 1.06667 13.8667H9.06667C9.36117 13.8667 9.6 13.6278 9.6 13.3333C9.6 13.0388 9.36117 12.8 9.06667 12.8H1.06667V1.06667H9.06667C9.36117 1.06667 9.6 0.827883 9.6 0.533333C9.6 0.238784 9.36117 0 9.06667 0H1.06667ZM11.3105 4.15621C11.1022 3.94793 10.7645 3.94793 10.5562 4.15621C10.3479 4.36449 10.3479 4.70218 10.5562 4.91045L12.0458 6.4H4.8C4.50545 6.4 4.26667 6.63878 4.26667 6.93333C4.26667 7.22788 4.50545 7.46667 4.8 7.46667H12.0458L10.5562 8.95621C10.3479 9.16449 10.3479 9.50218 10.5562 9.71051C10.7645 9.91872 11.1022 9.91872 11.3105 9.71051L13.7105 7.31045C13.9187 7.10218 13.9187 6.76449 13.7105 6.55621L11.3105 4.15621Z" fill="var(--fill-0, #60646C)"/>
</svg>
