<svg preserveAspectRatio="xMidYMid meet" width="122" height="16" viewBox="0 0 122.109 16.2" fill="none" xmlns="http://www.w3.org/2000/svg">
<g id="Logo Impulse-text Svg">
<g id="Union">
<path d="M10.0024 8.1L9.73775 9.33242C9.49802 10.4142 9.31682 11.0806 9.03853 11.6527C8.03119 13.7232 6.03295 15.3411 3.7983 15.8959C2.97503 16.1001 2.02422 16.1 0.123493 16.1L3.52486 0.1H11.7036L10.0024 8.1ZM16.4809 16.1H8.3022L10.0024 8.1C10.3977 6.2404 10.5952 5.31019 10.9663 4.54727C11.9736 2.47673 13.9718 0.858902 16.2065 0.304102C17.0299 0.0997834 17.9812 0.1 19.8823 0.1L16.4809 16.1ZM35.1626 16.1H29.0288L29.8794 12.099H29.8598C29.7264 12.623 29.5983 13.0013 29.4165 13.3354C28.7532 14.553 27.5734 15.508 26.2446 15.9037C25.587 16.0994 24.8253 16.1 23.3032 16.1L24.1538 12.099H24.1245C23.9511 12.7536 23.7764 13.2224 23.517 13.6303C22.8937 14.6104 21.9315 15.3893 20.8432 15.7953C20.0271 16.0996 19.0744 16.1 17.1694 16.1L18.8696 8.1H18.8725C19.3202 6.01367 19.5993 4.87576 20.1596 3.94961C21.12 2.36228 22.669 1.10781 24.4213 0.498438C25.5673 0.0999923 26.901 0.1 29.5669 0.1L27.4409 10.1H27.4419L27.6967 8.89981C28.251 6.29211 28.5286 4.98772 29.1567 3.94961C30.1171 2.36231 31.6661 1.10777 33.4184 0.498438C34.5644 0.100071 35.898 0.1 38.5639 0.1L35.1626 16.1ZM45.7846 8.1H39.2182C41.5076 8.1 42.653 8.09984 43.435 8.53555C44.1227 8.919 44.6189 9.53119 44.851 10.2836C45.1148 11.1392 44.877 12.2603 44.4008 14.5004L44.06 16.1H35.9057L39.3061 0.1H47.4848L45.7846 8.1ZM53.9633 8.1L52.2631 16.1H44.4311L46.1313 8.1H52.3276C50.0383 8.1 48.8928 8.09999 48.1108 7.66445C47.423 7.28104 46.9269 6.66882 46.6948 5.91641C46.4309 5.06076 46.6688 3.93981 47.145 1.69961L47.4858 0.1H55.6645L53.9633 8.1ZM63.1704 6.50039C63.6465 4.26019 63.8846 3.13924 64.5122 2.28359C65.0641 1.53118 65.8196 0.918997 66.6704 0.535547C67.6378 0.0995825 68.7835 0.1 71.0737 0.1H72.7094L71.0092 8.1C70.614 9.95958 70.4164 10.8898 70.0454 11.6527C69.038 13.7232 67.0398 15.3411 64.8051 15.8959C63.9818 16.1002 63.0311 16.1 61.1303 16.1H60.7211C59.2009 16.1 58.4401 16.1003 57.8374 15.9691C55.5727 15.4764 54.1064 13.6656 54.0952 11.348C54.0922 10.7313 54.2508 9.98723 54.5669 8.50039H62.7456L61.4702 14.5004C61.9463 12.2602 62.1844 11.1392 62.812 10.2836C63.364 9.53117 64.1194 8.91897 64.9702 8.53555C65.9376 8.09957 67.0832 8.1 69.3735 8.1H61.1948C58.9048 8.1 57.7591 8.10028 56.977 7.66445C56.2892 7.28098 55.7931 6.66892 55.561 5.91641C55.2972 5.06076 55.536 3.93981 56.0122 1.69961L56.352 0.1H64.5307L63.1704 6.50039ZM81.5014 0.1C83.2121 0.1 84.068 0.100265 84.7387 0.266016C86.8695 0.792823 88.2564 2.50584 88.3286 4.69961C88.3512 5.39008 88.1735 6.22757 87.8178 7.90078L86.0756 16.1C84.746 16.1 84.0801 16.0998 83.5473 15.9994C81.1467 15.5466 79.5994 13.6352 79.6557 11.1928C79.6683 10.6508 79.8061 10 80.0825 8.69961L80.2104 8.1H86.3442C84.0541 8.1 82.9085 8.10033 82.1264 7.66445C81.4386 7.28098 80.9425 6.66892 80.7104 5.91641C80.4466 5.06077 80.6854 3.93979 81.1616 1.69961L79.8012 8.1H73.2583C75.5483 8.1 76.6939 8.09966 77.476 8.53555C78.1639 8.91902 78.66 9.53107 78.892 10.2836C79.1559 11.1392 78.917 12.2602 78.4409 14.5004L78.101 16.1H69.9223L73.3227 0.1H81.5014ZM97.6225 4.1H99.6674C102.513 4.10023 104.502 5.9962 104.648 8.5668C104.679 8.418 104.712 8.26248 104.747 8.1C105.142 6.24043 105.339 5.31018 105.71 4.54727C106.718 2.47694 108.715 0.858977 110.95 0.304102C111.773 0.0997688 112.724 0.1 114.625 0.1H121.986L120.371 7.69961H113.01L114.286 1.69961C113.809 3.93981 113.571 5.06076 112.944 5.91641C112.392 6.6688 111.636 7.28098 110.786 7.66445C109.818 8.10041 108.672 8.1 106.382 8.1C108.672 8.1 109.818 8.0996 110.6 8.53555C111.288 8.91899 111.783 9.53116 112.015 10.2836C112.279 11.1392 112.041 12.2602 111.565 14.5004L112.925 8.1H120.286L120.116 8.89981C119.879 10.0142 119.76 10.5722 119.585 11.0385C118.624 13.6057 116.137 15.6201 113.426 16.0268C112.934 16.1005 112.363 16.1 111.224 16.1C109.323 16.1 108.373 16.1002 107.636 15.8959C105.637 15.3411 104.328 13.7231 104.201 11.6527C104.191 11.4963 104.193 11.3327 104.204 11.1557C103.096 13.9653 100.136 16.0999 97.1167 16.1H86.893L90.2934 0.1H98.4721L97.6225 4.1ZM90.229 8.1C92.519 8.1 93.6646 8.09971 94.4467 8.53555C95.1346 8.91901 95.6307 9.53107 95.8628 10.2836C96.1266 11.1392 95.8877 12.2602 95.4116 14.5004L96.7719 8.1H90.229Z" fill="var(--fill-0, #1C2024)"/>
<path d="M9.73775 9.33242L9.83538 9.35406L9.83552 9.35342L9.73775 9.33242ZM9.03853 11.6527L9.12845 11.6965L9.12846 11.6965L9.03853 11.6527ZM3.7983 15.8959L3.82237 15.993L3.82239 15.993L3.7983 15.8959ZM0.123493 16.1L0.025679 16.0792L0 16.2H0.123493L0.123493 16.1ZM3.52486 0.1V3.21991e-07H3.44388L3.42705 0.0792065L3.52486 0.1ZM11.7036 0.1L11.8014 0.1208L11.8271 3.21991e-07H11.7036V0.1ZM16.4809 16.1V16.2H16.5619L16.5787 16.1208L16.4809 16.1ZM8.3022 16.1L8.20439 16.0792L8.17872 16.2H8.3022V16.1ZM10.9663 4.54727L10.8763 4.50352L10.8763 4.50353L10.9663 4.54727ZM16.2065 0.304102L16.1824 0.207045L16.1824 0.207048L16.2065 0.304102ZM19.8823 0.1L19.9801 0.120794L20.0058 3.21991e-07H19.8823V0.1ZM35.1626 16.1V16.2H35.2435L35.2604 16.1208L35.1626 16.1ZM29.0288 16.1L28.931 16.0792L28.9053 16.2H29.0288V16.1ZM29.8794 12.099L29.9772 12.1198L30.0028 11.999H29.8794V12.099ZM29.8598 12.099V11.999H29.7821L29.7629 12.0744L29.8598 12.099ZM29.4165 13.3354L29.5043 13.3832L29.5043 13.3832L29.4165 13.3354ZM26.2446 15.9037L26.2731 15.9996L26.2731 15.9996L26.2446 15.9037ZM23.3032 16.1L23.2054 16.0792L23.1797 16.2H23.3032V16.1ZM24.1538 12.099L24.2516 12.1198L24.2773 11.999H24.1538V12.099ZM24.1245 12.099V11.999H24.0475L24.0278 12.0734L24.1245 12.099ZM23.517 13.6303L23.6014 13.6839L23.6014 13.6839L23.517 13.6303ZM20.8432 15.7953L20.8782 15.889L20.8782 15.889L20.8432 15.7953ZM17.1694 16.1L17.0716 16.0792L17.0459 16.2H17.1694V16.1ZM18.8696 8.1V8H18.7886L18.7718 8.07921L18.8696 8.1ZM18.8725 8.1V8.2H18.9533L18.9703 8.12098L18.8725 8.1ZM20.1596 3.94961L20.0741 3.89784L20.0741 3.89785L20.1596 3.94961ZM24.4213 0.498438L24.3885 0.403984L24.3885 0.403986L24.4213 0.498438ZM29.5669 0.1L29.6647 0.120795L29.6903 3.21991e-07H29.5669V0.1ZM27.4409 10.1L27.3431 10.0792L27.3174 10.2H27.4409V10.1ZM27.4419 10.1V10.2H27.5228L27.5397 10.1208L27.4419 10.1ZM27.6967 8.89981L27.5989 8.87901L27.5989 8.87903L27.6967 8.89981ZM29.1567 3.94961L29.0711 3.89784L29.0711 3.89785L29.1567 3.94961ZM33.4184 0.498438L33.3856 0.403982L33.3856 0.403985L33.4184 0.498438ZM38.5639 0.1L38.6617 0.120794L38.6874 3.21991e-07H38.5639V0.1ZM45.7846 8.1V8.2H45.8656L45.8824 8.12079L45.7846 8.1ZM43.435 8.53555L43.4837 8.44821L43.4837 8.44819L43.435 8.53555ZM44.851 10.2836L44.9466 10.2541L44.9466 10.2541L44.851 10.2836ZM44.4008 14.5004L44.4986 14.5212L44.4987 14.5212L44.4008 14.5004ZM44.06 16.1V16.2H44.141L44.1578 16.1208L44.06 16.1ZM35.9057 16.1L35.8079 16.0792L35.7822 16.2H35.9057V16.1ZM39.3061 0.1V3.21991e-07H39.2251L39.2083 0.0792122L39.3061 0.1ZM47.4848 0.1L47.5826 0.120788L47.6083 3.21991e-07H47.4848V0.1ZM53.9633 8.1L53.8655 8.0792L53.8655 8.07921L53.9633 8.1ZM52.2631 16.1V16.2H52.3441L52.361 16.1208L52.2631 16.1ZM44.4311 16.1L44.3333 16.0792L44.3076 16.2H44.4311V16.1ZM46.1313 8.1V8H46.0503L46.0335 8.07921L46.1313 8.1ZM48.1108 7.66445L48.0621 7.7518L48.0621 7.75182L48.1108 7.66445ZM46.6948 5.91641L46.5992 5.94587L46.5992 5.94589L46.6948 5.91641ZM47.145 1.69961L47.0472 1.67877L47.0472 1.67882L47.145 1.69961ZM47.4858 0.1V3.21991e-07H47.4049L47.388 0.0791616L47.4858 0.1ZM55.6645 0.1L55.7623 0.1208L55.788 3.21991e-07H55.6645V0.1ZM63.1704 6.50039L63.0726 6.4796L63.2682 6.52118L63.1704 6.50039ZM64.5122 2.28359L64.4315 2.22445L64.4315 2.22445L64.5122 2.28359ZM66.6704 0.535547L66.6293 0.444377L66.6293 0.44438L66.6704 0.535547ZM71.0737 0.1V0.2V0.1ZM72.7094 0.1L72.8072 0.120788L72.8329 3.21991e-07H72.7094V0.1ZM71.0092 8.1L71.1071 8.12079V8.12079L71.0092 8.1ZM70.0454 11.6527L70.1353 11.6965L70.1353 11.6965L70.0454 11.6527ZM64.8051 15.8959L64.8292 15.993L64.8292 15.993L64.8051 15.8959ZM61.1303 16.1V16.2V16.1ZM60.7211 16.1V16V16.1ZM57.8374 15.9691L57.8161 16.0669L57.8161 16.0669L57.8374 15.9691ZM54.0952 11.348L53.9952 11.3485V11.3485L54.0952 11.348ZM54.5669 8.50039V8.40039H54.4859L54.469 8.4796L54.5669 8.50039ZM62.7456 8.50039L62.8434 8.52118L62.8691 8.40039H62.7456V8.50039ZM61.4702 14.5004L61.3724 14.4796L61.568 14.5212L61.4702 14.5004ZM62.812 10.2836L62.7313 10.2244L62.7313 10.2245L62.812 10.2836ZM64.9702 8.53555L64.9291 8.44438L64.9291 8.44438L64.9702 8.53555ZM61.1948 8.1V8V8.1ZM56.977 7.66445L56.9283 7.7518L56.9283 7.75181L56.977 7.66445ZM55.561 5.91641L55.4654 5.94587L55.4654 5.94588L55.561 5.91641ZM56.0122 1.69961L56.11 1.7204V1.72039L56.0122 1.69961ZM56.352 0.1V3.21991e-07H56.271L56.2542 0.0792187L56.352 0.1ZM64.5307 0.1L64.6285 0.12079L64.6542 3.21991e-07H64.5307V0.1ZM84.7387 0.266016L84.7627 0.168939L84.7627 0.168937L84.7387 0.266016ZM88.3286 4.69961L88.4285 4.69633V4.69632L88.3286 4.69961ZM87.8178 7.90078L87.72 7.87999V7.88L87.8178 7.90078ZM86.0756 16.1V16.2H86.1566L86.1735 16.1208L86.0756 16.1ZM83.5473 15.9994L83.5288 16.0977L83.5288 16.0977L83.5473 15.9994ZM79.6557 11.1928L79.5557 11.1904V11.1905L79.6557 11.1928ZM80.0825 8.69961L79.9847 8.67874L79.9847 8.67882L80.0825 8.69961ZM80.2104 8.1V8H80.1295L80.1126 8.07913L80.2104 8.1ZM82.1264 7.66445L82.0777 7.7518L82.0777 7.7518L82.1264 7.66445ZM80.7104 5.91641L80.6148 5.94587V5.94588L80.7104 5.91641ZM81.1616 1.69961L81.2594 1.7204L81.0638 1.67882L81.1616 1.69961ZM79.8012 8.1V8.2H79.8822L79.899 8.12079L79.8012 8.1ZM77.476 8.53555L77.5247 8.4482L77.5247 8.4482L77.476 8.53555ZM78.892 10.2836L78.9876 10.2541V10.2541L78.892 10.2836ZM78.4409 14.5004L78.3431 14.4796V14.4796L78.4409 14.5004ZM78.101 16.1V16.2H78.182L78.1988 16.1208L78.101 16.1ZM69.9223 16.1L69.8245 16.0792L69.7988 16.2H69.9223V16.1ZM73.3227 0.1V3.21991e-07H73.2417L73.2249 0.0792122L73.3227 0.1ZM97.6225 4.1L97.5247 4.07922L97.499 4.2H97.6225V4.1ZM99.6674 4.1L99.6674 4H99.6674V4.1ZM104.648 8.5668L104.548 8.57248L104.746 8.5875L104.648 8.5668ZM104.747 8.1L104.649 8.07921V8.07921L104.747 8.1ZM105.71 4.54727L105.62 4.50352L105.62 4.50353L105.71 4.54727ZM110.95 0.304102L110.926 0.207046L110.926 0.207049L110.95 0.304102ZM114.625 0.1V0.2V0.1ZM121.986 0.1L122.084 0.12079L122.109 3.21991e-07H121.986V0.1ZM120.371 7.69961V7.79961H120.452L120.468 7.7204L120.371 7.69961ZM113.01 7.69961L112.912 7.67882L112.887 7.79961H113.01V7.69961ZM114.286 1.69961L114.383 1.7204L114.188 1.67882L114.286 1.69961ZM112.944 5.91641L113.024 5.97555V5.97555L112.944 5.91641ZM110.786 7.66445L110.827 7.75562L110.827 7.75562L110.786 7.66445ZM110.6 8.53555L110.649 8.4482L110.649 8.4482L110.6 8.53555ZM112.015 10.2836L112.111 10.2541V10.2541L112.015 10.2836ZM111.565 14.5004L111.467 14.4796L111.663 14.5212L111.565 14.5004ZM112.925 8.1V8H112.844L112.827 8.07921L112.925 8.1ZM120.286 8.1L120.383 8.12078L120.409 8H120.286V8.1ZM120.116 8.89981L120.213 8.9206V8.92059L120.116 8.89981ZM119.585 11.0385L119.679 11.0736V11.0735L119.585 11.0385ZM113.426 16.0268L113.441 16.1257L113.441 16.1257L113.426 16.0268ZM111.224 16.1V16.2V16.1ZM107.636 15.8959L107.609 15.9923L107.609 15.9923L107.636 15.8959ZM104.201 11.6527L104.101 11.6588V11.6589L104.201 11.6527ZM104.204 11.1557L104.303 11.1616L104.111 11.119L104.204 11.1557ZM97.1167 16.1V16.2H97.1167L97.1167 16.1ZM86.893 16.1L86.7952 16.0792L86.7695 16.2H86.893V16.1ZM90.2934 0.1V3.21991e-07H90.2124L90.1956 0.0792122L90.2934 0.1ZM98.4721 0.1L98.5699 0.120777L98.5956 3.21991e-07H98.4721V0.1ZM94.4467 8.53555L94.4954 8.4482L94.4954 8.4482L94.4467 8.53555ZM95.8628 10.2836L95.9583 10.2541V10.2541L95.8628 10.2836ZM95.4116 14.5004L95.3138 14.4796L95.5094 14.5212L95.4116 14.5004ZM96.7719 8.1L96.8697 8.12079L96.8954 8H96.7719V8.1ZM10.0024 8.1L9.90463 8.07901L9.63998 9.31143L9.73775 9.33242L9.83552 9.35342L10.1002 8.121L10.0024 8.1ZM9.73775 9.33242L9.64012 9.31079C9.40038 10.3926 9.2212 11.0485 8.9486 11.609L9.03853 11.6527L9.12846 11.6965C9.41244 11.1126 9.59566 10.4358 9.83538 9.35406L9.73775 9.33242ZM9.03853 11.6527L8.94861 11.609C7.95423 13.6528 5.9801 15.2512 3.7742 15.7988L3.7983 15.8959L3.82239 15.993C6.08579 15.431 8.10815 13.7936 9.12845 11.6965L9.03853 11.6527ZM3.7983 15.8959L3.77422 15.7988C2.96572 15.9994 2.0298 16 0.123493 16L0.123493 16.1L0.123493 16.2C2.01863 16.2 2.98434 16.2008 3.82237 15.993L3.7983 15.8959ZM0.123493 16.1L0.221307 16.1208L3.62267 0.120794L3.52486 0.1L3.42705 0.0792065L0.025679 16.0792L0.123493 16.1ZM3.52486 0.1V0.2H11.7036V0.1V3.21991e-07H3.52486V0.1ZM11.7036 0.1L11.6058 0.0792007L9.90459 8.0792L10.0024 8.1L10.1002 8.1208L11.8014 0.1208L11.7036 0.1ZM16.4809 16.1V16H8.3022V16.1V16.2H16.4809V16.1ZM8.3022 16.1L8.40002 16.1208L10.1002 8.12079L10.0024 8.1L9.90458 8.07921L8.20439 16.0792L8.3022 16.1ZM10.0024 8.1L10.1002 8.12079C10.4966 6.25572 10.6918 5.34024 11.0562 4.591L10.9663 4.54727L10.8763 4.50353C10.4986 5.28014 10.2987 6.22508 9.90458 8.07921L10.0024 8.1ZM10.9663 4.54727L11.0562 4.59101C12.0505 2.54712 14.0246 0.948818 16.2306 0.401156L16.2065 0.304102L16.1824 0.207048C13.9189 0.768985 11.8966 2.40633 10.8763 4.50352L10.9663 4.54727ZM16.2065 0.304102L16.2306 0.401158C17.0392 0.200506 17.9756 0.2 19.8823 0.2V0.1V3.21991e-07C17.9868 3.21991e-07 17.0206 -0.00093933 16.1824 0.207045L16.2065 0.304102ZM19.8823 0.1L19.7845 0.0792065L16.3831 16.0792L16.4809 16.1L16.5787 16.1208L19.9801 0.120794L19.8823 0.1ZM35.1626 16.1V16H29.0288V16.1V16.2H35.1626V16.1ZM29.0288 16.1L29.1266 16.1208L29.9772 12.1198L29.8794 12.099L29.7815 12.0782L28.931 16.0792L29.0288 16.1ZM29.8794 12.099V11.999H29.8598V12.099V12.199H29.8794V12.099ZM29.8598 12.099L29.7629 12.0744C29.6303 12.5952 29.5046 12.9643 29.3286 13.2875L29.4165 13.3354L29.5043 13.3832C29.692 13.0384 29.8226 12.6508 29.9567 12.1237L29.8598 12.099ZM29.4165 13.3354L29.3286 13.2875C28.678 14.4819 27.5196 15.4197 26.216 15.8079L26.2446 15.9037L26.2731 15.9996C27.6273 15.5963 28.8284 14.624 29.5043 13.3832L29.4165 13.3354ZM26.2446 15.9037L26.2161 15.8079C25.5759 15.9984 24.8318 16 23.3032 16V16.1V16.2C24.8187 16.2 25.5982 16.2004 26.2731 15.9996L26.2446 15.9037ZM23.3032 16.1L23.401 16.1208L24.2516 12.1198L24.1538 12.099L24.056 12.0782L23.2054 16.0792L23.3032 16.1ZM24.1538 12.099V11.999H24.1245V12.099V12.199H24.1538V12.099ZM24.1245 12.099L24.0278 12.0734C23.8555 12.7239 23.684 13.1814 23.4327 13.5766L23.517 13.6303L23.6014 13.6839C23.8688 13.2635 24.0467 12.7832 24.2211 12.1246L24.1245 12.099ZM23.517 13.6303L23.4327 13.5766C22.821 14.5383 21.8762 15.3032 20.8083 15.7016L20.8432 15.7953L20.8782 15.889C21.9869 15.4754 22.9664 14.6824 23.6014 13.6839L23.517 13.6303ZM20.8432 15.7953L20.8083 15.7016C20.0131 15.9981 19.0825 16 17.1694 16V16.1V16.2C19.0664 16.2 20.041 16.2012 20.8782 15.889L20.8432 15.7953ZM17.1694 16.1L17.2672 16.1208L18.9674 8.12079L18.8696 8.1L18.7718 8.07921L17.0716 16.0792L17.1694 16.1ZM18.8696 8.1V8.2H18.8725V8.1V8H18.8696V8.1ZM18.8725 8.1L18.9703 8.12098C19.4189 6.03049 19.6952 4.91041 20.2452 4.00137L20.1596 3.94961L20.0741 3.89785C19.5034 4.8411 19.2215 5.99684 18.7747 8.07902L18.8725 8.1ZM20.1596 3.94961L20.2452 4.00138C21.1935 2.43398 22.7239 1.19461 24.4542 0.59289L24.4213 0.498438L24.3885 0.403986C22.6142 1.02102 21.0465 2.29058 20.0741 3.89784L20.1596 3.94961ZM24.4213 0.498438L24.4542 0.592891C25.5803 0.201338 26.8934 0.2 29.5669 0.2V0.1V3.21991e-07C26.9086 3.21991e-07 25.5543 -0.00135374 24.3885 0.403984L24.4213 0.498438ZM29.5669 0.1L29.469 0.0792053L27.3431 10.0792L27.4409 10.1L27.5387 10.1208L29.6647 0.120795L29.5669 0.1ZM27.4409 10.1V10.2H27.4419V10.1V10H27.4409V10.1ZM27.4419 10.1L27.5397 10.1208L27.7946 8.92058L27.6967 8.89981L27.5989 8.87903L27.344 10.0792L27.4419 10.1ZM27.6967 8.89981L27.7945 8.9206C28.3504 6.30549 28.6251 5.02153 29.2423 4.00137L29.1567 3.94961L29.0711 3.89785C28.4322 4.95391 28.1516 6.27872 27.5989 8.87901L27.6967 8.89981ZM29.1567 3.94961L29.2423 4.00138C30.1906 2.434 31.7209 1.19457 33.4513 0.59289L33.4184 0.498438L33.3856 0.403985C31.6112 1.02097 30.0436 2.29061 29.0711 3.89784L29.1567 3.94961ZM33.4184 0.498438L33.4512 0.592893C34.5774 0.201416 35.8904 0.2 38.5639 0.2V0.1V3.21991e-07C35.9056 3.21991e-07 34.5514 -0.00127452 33.3856 0.403982L33.4184 0.498438ZM38.5639 0.1L38.4661 0.0792065L35.0647 16.0792L35.1626 16.1L35.2604 16.1208L38.6617 0.120794L38.5639 0.1ZM45.7846 8.1V8H39.2182V8.1V8.2H45.7846V8.1ZM39.2182 8.1V8.2C40.3646 8.2 41.2185 8.20004 41.8838 8.25405C42.5486 8.30803 43.0138 8.4153 43.3863 8.6229L43.435 8.53555L43.4837 8.44819C43.0743 8.22008 42.5757 8.10957 41.9 8.05471C41.2247 7.99988 40.3612 8 39.2182 8V8.1ZM43.435 8.53555L43.3863 8.62289C44.0516 8.99382 44.531 9.5853 44.7555 10.3131L44.851 10.2836L44.9466 10.2541C44.7069 9.47708 44.1939 8.84418 43.4837 8.44821L43.435 8.53555ZM44.851 10.2836L44.7555 10.3131C44.8812 10.7207 44.8895 11.1982 44.8042 11.86C44.7189 12.5223 44.5414 13.3579 44.303 14.4796L44.4008 14.5004L44.4987 14.5212C44.7364 13.4028 44.9159 12.5578 45.0026 11.8856C45.0893 11.2129 45.0847 10.7021 44.9466 10.2541L44.851 10.2836ZM44.4008 14.5004L44.303 14.4796L43.9622 16.0792L44.06 16.1L44.1578 16.1208L44.4986 14.5212L44.4008 14.5004ZM44.06 16.1V16H35.9057V16.1V16.2H44.06V16.1ZM35.9057 16.1L36.0035 16.1208L39.4039 0.120788L39.3061 0.1L39.2083 0.0792122L35.8079 16.0792L35.9057 16.1ZM39.3061 0.1V0.2H47.4848V0.1V3.21991e-07H39.3061V0.1ZM47.4848 0.1L47.387 0.0792122L45.6868 8.07921L45.7846 8.1L45.8824 8.12079L47.5826 0.120788L47.4848 0.1ZM53.9633 8.1L53.8655 8.07921L52.1653 16.0792L52.2631 16.1L52.361 16.1208L54.0612 8.12079L53.9633 8.1ZM52.2631 16.1V16H44.4311V16.1V16.2H52.2631V16.1ZM44.4311 16.1L44.5289 16.1208L46.2291 8.12079L46.1313 8.1L46.0335 8.07921L44.3333 16.0792L44.4311 16.1ZM46.1313 8.1V8.2H52.3276V8.1V8H46.1313V8.1ZM52.3276 8.1V8C51.1813 8 50.3273 7.99992 49.6621 7.94588C48.9972 7.89188 48.5321 7.78461 48.1595 7.57709L48.1108 7.66445L48.0621 7.75182C48.4716 7.97984 48.9701 8.09034 49.6459 8.14523C50.3212 8.20008 51.1846 8.2 52.3276 8.2V8.1ZM48.1108 7.66445L48.1595 7.57711C47.4942 7.20623 47.0149 6.61472 46.7903 5.88692L46.6948 5.91641L46.5992 5.94589C46.839 6.72292 47.3518 7.35586 48.0621 7.7518L48.1108 7.66445ZM46.6948 5.91641L46.7903 5.88694C46.6646 5.47925 46.6563 5.00179 46.7416 4.34C46.8269 3.67777 47.0044 2.84214 47.2428 1.7204L47.145 1.69961L47.0472 1.67882C46.8094 2.79728 46.6298 3.64223 46.5432 4.31443C46.4565 4.98708 46.4611 5.49792 46.5992 5.94587L46.6948 5.91641ZM47.145 1.69961L47.2428 1.72045L47.5836 0.120839L47.4858 0.1L47.388 0.0791616L47.0472 1.67877L47.145 1.69961ZM47.4858 0.1V0.2H55.6645V0.1V3.21991e-07H47.4858V0.1ZM55.6645 0.1L55.5667 0.0792007L53.8655 8.0792L53.9633 8.1L54.0611 8.1208L55.7623 0.1208L55.6645 0.1ZM63.1704 6.50039L63.2682 6.52118C63.7463 4.27158 63.981 3.17688 64.5928 2.34274L64.5122 2.28359L64.4315 2.22445C63.7882 3.1016 63.5467 4.24879 63.0726 6.4796L63.1704 6.50039ZM64.5122 2.28359L64.5928 2.34274C65.1346 1.60422 65.8765 1.00307 66.7115 0.626714L66.6704 0.535547L66.6293 0.44438C65.7628 0.834924 64.9937 1.45815 64.4315 2.22445L64.5122 2.28359ZM66.6704 0.535547L66.7115 0.626717C67.6546 0.20171 68.7739 0.2 71.0737 0.2V0.1V3.21991e-07C68.7931 3.0709e-07 67.621 -0.00254476 66.6293 0.444377L66.6704 0.535547ZM71.0737 0.1V0.2H72.7094V0.1V3.21991e-07H71.0737V0.1ZM72.7094 0.1L72.6116 0.0792122L70.9114 8.07921L71.0092 8.1L71.1071 8.12079L72.8072 0.120788L72.7094 0.1ZM71.0092 8.1L70.9114 8.07921C70.515 9.94426 70.3198 10.8598 69.9554 11.609L70.0454 11.6527L70.1353 11.6965C70.513 10.9199 70.7129 9.9749 71.1071 8.12079L71.0092 8.1ZM70.0454 11.6527L69.9554 11.609C68.9611 13.6528 66.987 15.2512 64.781 15.7988L64.8051 15.8959L64.8292 15.993C67.0927 15.431 69.115 13.7936 70.1353 11.6965L70.0454 11.6527ZM64.8051 15.8959L64.781 15.7988C63.9725 15.9995 63.0367 16 61.1303 16V16.1V16.2C63.0255 16.2 63.9911 16.2009 64.8292 15.993L64.8051 15.8959ZM61.1303 16.1V16H60.7211V16.1V16.2H61.1303V16.1ZM60.7211 16.1V16C59.1954 16 58.4481 15.9997 57.8586 15.8714L57.8374 15.9691L57.8161 16.0669C58.4321 16.2008 59.2065 16.2 60.7211 16.2V16.1ZM57.8374 15.9691L57.8586 15.8714C55.6397 15.3887 54.2062 13.6183 54.1952 11.3476L54.0952 11.348L53.9952 11.3485C54.0066 13.713 55.5056 15.5642 57.8161 16.0669L57.8374 15.9691ZM54.0952 11.348L54.1952 11.3476C54.1923 10.7443 54.3475 10.0135 54.6647 8.52118L54.5669 8.50039L54.469 8.4796C54.1542 9.96097 53.9922 10.7182 53.9952 11.3485L54.0952 11.348ZM54.5669 8.50039V8.60039H62.7456V8.50039V8.40039H54.5669V8.50039ZM62.7456 8.50039L62.6477 8.4796L61.3724 14.4796L61.4702 14.5004L61.568 14.5212L62.8434 8.52118L62.7456 8.50039ZM61.4702 14.5004L61.568 14.5212C62.0462 12.2716 62.2808 11.1769 62.8926 10.3427L62.812 10.2836L62.7313 10.2245C62.088 11.1016 61.8465 12.2488 61.3724 14.4796L61.4702 14.5004ZM62.812 10.2836L62.8926 10.3427C63.4344 9.6042 64.1762 9.00305 65.0113 8.62672L64.9702 8.53555L64.9291 8.44438C64.0626 8.8349 63.2935 9.45814 62.7313 10.2244L62.812 10.2836ZM64.9702 8.53555L65.0113 8.62672C65.9544 8.2017 67.0736 8.2 69.3735 8.2V8.1V8C67.0929 8 65.9208 7.99745 64.9291 8.44438L64.9702 8.53555ZM69.3735 8.1V8H61.1948V8.1V8.2H69.3735V8.1ZM61.1948 8.1V8C60.0481 8 59.194 7.99999 58.5285 7.94599C57.8635 7.89202 57.3983 7.78475 57.0257 7.5771L56.977 7.66445L56.9283 7.75181C57.3378 7.97998 57.8365 8.09048 58.5123 8.14533C59.1878 8.20015 60.0515 8.2 61.1948 8.2V8.1ZM56.977 7.66445L57.0257 7.57711C56.3603 7.20616 55.881 6.61481 55.6566 5.88694L55.561 5.91641L55.4654 5.94588C55.7051 6.72303 56.218 7.35581 56.9283 7.7518L56.977 7.66445ZM55.561 5.91641L55.6566 5.88694C55.5308 5.47928 55.5227 5.00185 55.6082 4.34004C55.6939 3.67779 55.8715 2.84216 56.11 1.7204L56.0122 1.69961L55.9143 1.67882C55.6766 2.79726 55.4968 3.64221 55.4099 4.3144C55.323 4.98702 55.3273 5.49789 55.4654 5.94587L55.561 5.91641ZM56.0122 1.69961L56.11 1.72039L56.4498 0.120782L56.352 0.1L56.2542 0.0792187L55.9143 1.67883L56.0122 1.69961ZM56.352 0.1V0.2H64.5307V0.1V3.21991e-07H56.352V0.1ZM64.5307 0.1L64.4329 0.0792105L63.0726 6.4796L63.1704 6.50039L63.2682 6.52118L64.6285 0.12079L64.5307 0.1ZM81.5014 0.1V0.2C83.2184 0.2 84.0589 0.201019 84.7147 0.363095L84.7387 0.266016L84.7627 0.168937C84.0772 -0.000488585 83.2058 3.21991e-07 81.5014 3.21991e-07V0.1ZM84.7387 0.266016L84.7147 0.363093C86.802 0.879156 88.158 2.55386 88.2286 4.7029L88.3286 4.69961L88.4285 4.69632C88.3549 2.45782 86.9369 0.706491 84.7627 0.168939L84.7387 0.266016ZM88.3286 4.69961L88.2286 4.70289C88.2508 5.37806 88.077 6.20062 87.72 7.87999L87.8178 7.90078L87.9156 7.92157C88.27 6.25452 88.4517 5.40211 88.4285 4.69633L88.3286 4.69961ZM87.8178 7.90078L87.72 7.88L85.9778 16.0792L86.0756 16.1L86.1735 16.1208L87.9156 7.92157L87.8178 7.90078ZM86.0756 16.1V16C84.7413 16 84.0871 15.9994 83.5658 15.9011L83.5473 15.9994L83.5288 16.0977C84.0731 16.2003 84.7508 16.2 86.0756 16.2V16.1ZM83.5473 15.9994L83.5659 15.9011C81.2133 15.4574 79.7005 13.5885 79.7557 11.1951L79.6557 11.1928L79.5557 11.1905C79.4983 13.6818 81.08 15.6358 83.5288 16.0977L83.5473 15.9994ZM79.6557 11.1928L79.7557 11.1951C79.768 10.6648 79.9029 10.0254 80.1803 8.7204L80.0825 8.69961L79.9847 8.67882C79.7092 9.97463 79.5686 10.6368 79.5557 11.1904L79.6557 11.1928ZM80.0825 8.69961L80.1803 8.72048L80.3082 8.12087L80.2104 8.1L80.1126 8.07913L79.9847 8.67874L80.0825 8.69961ZM80.2104 8.1V8.2H86.3442V8.1V8H80.2104V8.1ZM86.3442 8.1V8C85.1975 8 84.3433 8 83.6779 7.94601C83.0129 7.89205 82.5477 7.78478 82.1751 7.5771L82.1264 7.66445L82.0777 7.7518C82.4872 7.98001 82.9859 8.09051 83.6617 8.14535C84.3371 8.20016 85.2009 8.2 86.3442 8.2V8.1ZM82.1264 7.66445L82.1751 7.57711C81.5098 7.20616 81.0305 6.61481 80.806 5.88694L80.7104 5.91641L80.6148 5.94588C80.8545 6.72303 81.3675 7.3558 82.0777 7.7518L82.1264 7.66445ZM80.7104 5.91641L80.806 5.88694C80.6803 5.47928 80.6721 5.00184 80.7577 4.34003C80.8433 3.67777 81.021 2.84215 81.2594 1.7204L81.1616 1.69961L81.0638 1.67882C80.826 2.79724 80.6462 3.6422 80.5593 4.31439C80.4724 4.98702 80.4767 5.49789 80.6148 5.94587L80.7104 5.91641ZM81.1616 1.69961L81.0638 1.67882L79.7034 8.07921L79.8012 8.1L79.899 8.12079L81.2594 1.7204L81.1616 1.69961ZM79.8012 8.1V8H73.2583V8.1V8.2H79.8012V8.1ZM73.2583 8.1V8.2C74.405 8.2 75.2591 8.19999 75.9246 8.25399C76.5895 8.30795 77.0547 8.41522 77.4273 8.6229L77.476 8.53555L77.5247 8.4482C77.1153 8.21999 76.6166 8.10949 75.9407 8.05464C75.2653 7.99984 74.4016 8 73.2583 8V8.1ZM77.476 8.53555L77.4273 8.62289C78.0927 8.99384 78.572 9.58518 78.7965 10.3131L78.892 10.2836L78.9876 10.2541C78.7479 9.47696 78.235 8.8442 77.5247 8.4482L77.476 8.53555ZM78.892 10.2836L78.7965 10.3131C78.9222 10.7207 78.9303 11.1982 78.8448 11.86C78.7592 12.5222 78.5815 13.3579 78.3431 14.4796L78.4409 14.5004L78.5387 14.5212C78.7764 13.4028 78.9562 12.5578 79.0431 11.8856C79.1301 11.213 79.1257 10.7021 78.9876 10.2541L78.892 10.2836ZM78.4409 14.5004L78.3431 14.4796L78.0032 16.0792L78.101 16.1L78.1988 16.1208L78.5387 14.5212L78.4409 14.5004ZM78.101 16.1V16H69.9223V16.1V16.2H78.101V16.1ZM69.9223 16.1L70.0201 16.1208L73.4205 0.120788L73.3227 0.1L73.2249 0.0792122L69.8245 16.0792L69.9223 16.1ZM73.3227 0.1V0.2H81.5014V0.1V3.21991e-07H73.3227V0.1ZM97.6225 4.1V4.2H99.6674V4.1V4H97.6225V4.1ZM99.6674 4.1L99.6674 4.2C102.463 4.20022 104.405 6.05791 104.548 8.57248L104.648 8.5668L104.748 8.56111C104.598 5.93449 102.563 4.00023 99.6674 4L99.6674 4.1ZM104.648 8.5668L104.746 8.5875C104.777 8.4384 104.81 8.28328 104.844 8.12079L104.747 8.1L104.649 8.07921C104.614 8.24168 104.581 8.3976 104.55 8.54609L104.648 8.5668ZM104.747 8.1L104.844 8.12079C105.241 6.25575 105.436 5.34023 105.8 4.591L105.71 4.54727L105.62 4.50353C105.243 5.28013 105.043 6.22511 104.649 8.07921L104.747 8.1ZM105.71 4.54727L105.8 4.59102C106.795 2.54733 108.768 0.948887 110.974 0.401154L110.95 0.304102L110.926 0.207049C108.662 0.769067 106.641 2.40656 105.62 4.50352L105.71 4.54727ZM110.95 0.304102L110.974 0.401158C111.782 0.200492 112.719 0.2 114.625 0.2V0.1V3.21991e-07C112.73 3.21991e-07 111.764 -0.000954038 110.926 0.207046L110.95 0.304102ZM114.625 0.1V0.2H121.986V0.1V3.21991e-07H114.625V0.1ZM121.986 0.1L121.888 0.0792105L120.273 7.67882L120.371 7.69961L120.468 7.7204L122.084 0.12079L121.986 0.1ZM120.371 7.69961V7.59961H113.01V7.69961V7.79961H120.371V7.69961ZM113.01 7.69961L113.108 7.7204L114.383 1.7204L114.286 1.69961L114.188 1.67882L112.912 7.67882L113.01 7.69961ZM114.286 1.69961L114.188 1.67882C113.71 3.92842 113.475 5.02312 112.863 5.85726L112.944 5.91641L113.024 5.97555C113.668 5.0984 113.909 3.95121 114.383 1.7204L114.286 1.69961ZM112.944 5.91641L112.863 5.85726C112.321 6.59576 111.579 7.19691 110.745 7.57329L110.786 7.66445L110.827 7.75562C111.693 7.36505 112.462 6.74184 113.024 5.97555L112.944 5.91641ZM110.786 7.66445L110.745 7.57328C109.801 7.99828 108.682 8 106.382 8V8.1V8.2C108.663 8.2 109.835 8.20253 110.827 7.75562L110.786 7.66445ZM106.382 8.1V8.2C107.529 8.2 108.383 8.19998 109.049 8.25396C109.714 8.30792 110.179 8.41519 110.551 8.62289L110.6 8.53555L110.649 8.4482C110.239 8.21996 109.741 8.10945 109.065 8.05462C108.389 7.99982 107.526 8 106.382 8V8.1ZM110.6 8.53555L110.551 8.62289C111.217 8.99378 111.695 9.5852 111.92 10.3131L112.015 10.2836L112.111 10.2541C111.871 9.47712 111.359 8.84421 110.649 8.4482L110.6 8.53555ZM112.015 10.2836L111.92 10.3131C112.045 10.7208 112.054 11.1982 111.968 11.86C111.883 12.5222 111.706 13.3579 111.467 14.4796L111.565 14.5004L111.663 14.5212C111.9 13.4027 112.08 12.5578 112.167 11.8856C112.253 11.2129 112.249 10.7021 112.111 10.2541L112.015 10.2836ZM111.565 14.5004L111.663 14.5212L113.023 8.12079L112.925 8.1L112.827 8.07921L111.467 14.4796L111.565 14.5004ZM112.925 8.1V8.2H120.286V8.1V8H112.925V8.1ZM120.286 8.1L120.188 8.07922L120.018 8.87902L120.116 8.89981L120.213 8.92059L120.383 8.12078L120.286 8.1ZM120.116 8.89981L120.018 8.87901C119.78 9.99679 119.663 10.5458 119.492 11.0034L119.585 11.0385L119.679 11.0735C119.857 10.5985 119.977 10.0316 120.213 8.9206L120.116 8.89981ZM119.585 11.0385L119.492 11.0034C118.543 13.5366 116.086 15.5266 113.411 15.9279L113.426 16.0268L113.441 16.1257C116.188 15.7136 118.705 13.6747 119.679 11.0736L119.585 11.0385ZM113.426 16.0268L113.411 15.9279C112.928 16.0003 112.367 16 111.224 16V16.1V16.2C112.36 16.2 112.939 16.2008 113.441 16.1257L113.426 16.0268ZM111.224 16.1V16C109.316 16 108.383 15.9992 107.663 15.7995L107.636 15.8959L107.609 15.9923C108.362 16.2011 109.331 16.2 111.224 16.2V16.1ZM107.636 15.8959L107.663 15.7995C105.705 15.2562 104.425 13.6744 104.3 11.6466L104.201 11.6527L104.101 11.6589C104.231 13.7718 105.57 15.4261 107.609 15.9923L107.636 15.8959ZM104.201 11.6527L104.3 11.6466C104.291 11.4952 104.293 11.3358 104.303 11.1616L104.204 11.1557L104.104 11.1497C104.093 11.3296 104.091 11.4974 104.101 11.6588L104.201 11.6527ZM104.204 11.1557L104.111 11.119C103.017 13.8929 100.092 15.9999 97.1166 16L97.1167 16.1L97.1167 16.2C100.179 16.1999 103.175 14.0378 104.297 11.1923L104.204 11.1557ZM97.1167 16.1V16H86.893V16.1V16.2H97.1167V16.1ZM86.893 16.1L86.9908 16.1208L90.3912 0.120788L90.2934 0.1L90.1956 0.0792122L86.7952 16.0792L86.893 16.1ZM90.2934 0.1V0.2H98.4721V0.1V3.21991e-07H90.2934V0.1ZM98.4721 0.1L98.3743 0.0792236L97.5247 4.07922L97.6225 4.1L97.7203 4.12078L98.5699 0.120777L98.4721 0.1ZM90.229 8.1V8.2C91.3757 8.2 92.2298 8.20001 92.8952 8.25401C93.5602 8.30797 94.0254 8.41524 94.3981 8.6229L94.4467 8.53555L94.4954 8.4482C94.086 8.22001 93.5873 8.10951 92.9114 8.05466C92.236 7.99985 91.3723 8 90.229 8V8.1ZM94.4467 8.53555L94.398 8.62289C95.0634 8.99383 95.5427 9.58517 95.7672 10.3131L95.8628 10.2836L95.9583 10.2541C95.7186 9.47696 95.2057 8.84419 94.4954 8.4482L94.4467 8.53555ZM95.8628 10.2836L95.7672 10.3131C95.8929 10.7207 95.901 11.1982 95.8155 11.86C95.7299 12.5222 95.5522 13.3578 95.3138 14.4796L95.4116 14.5004L95.5094 14.5212C95.7471 13.4028 95.9269 12.5578 96.0138 11.8856C96.1008 11.213 96.0964 10.7021 95.9583 10.2541L95.8628 10.2836ZM95.4116 14.5004L95.5094 14.5212L96.8697 8.12079L96.7719 8.1L96.6741 8.07921L95.3138 14.4796L95.4116 14.5004ZM96.7719 8.1V8H90.229V8.1V8.2H96.7719V8.1Z" fill="var(--stroke-0, white)"/>
</g>
</g>
</svg>
